<svg xmlns="http://www.w3.org/2000/svg" xmlns:xlink="http://www.w3.org/1999/xlink" width="500" zoomAndPan="magnify" viewBox="0 0 375 374.999991" height="500" preserveAspectRatio="xMidYMid meet" version="1.0"><defs><g/><clipPath id="2bf699c078"><path d="M 117.464844 88.347656 L 257.714844 88.347656 L 257.714844 228.597656 L 117.464844 228.597656 Z M 117.464844 88.347656 " clip-rule="nonzero"/></clipPath><clipPath id="2167ef4f4e"><path d="M 124.089844 79 L 250.839844 79 L 250.839844 228.417969 L 124.089844 228.417969 Z M 124.089844 79 " clip-rule="nonzero"/></clipPath></defs><g fill="#423226" fill-opacity="1"><g transform="translate(97.520934, 273.333323)"><g><path d="M 26.828125 -0.109375 C 25.585938 0.191406 24.257812 0.34375 22.84375 0.34375 C 22.132812 0.34375 21.144531 0.300781 19.875 0.21875 C 19.46875 0.1875 18.703125 0.171875 17.578125 0.171875 C 16.578125 -1.023438 15.679688 -2.359375 14.890625 -3.828125 C 14.109375 -5.304688 13.234375 -7.148438 12.265625 -9.359375 C 12.078125 -9.722656 11.914062 -10.140625 11.78125 -10.609375 C 11.65625 -11.078125 11.59375 -11.347656 11.59375 -11.421875 L 11.421875 -12.09375 L 11.203125 -12.828125 C 11.203125 -10.921875 11.238281 -8.550781 11.3125 -5.71875 C 11.382812 -3.394531 11.421875 -1.546875 11.421875 -0.171875 C 10.078125 0.203125 8.507812 0.390625 6.71875 0.390625 C 4.882812 0.390625 3.164062 0.203125 1.5625 -0.171875 C 1.414062 -3.421875 1.34375 -7.097656 1.34375 -11.203125 C 1.34375 -15.640625 1.398438 -20.0625 1.515625 -24.46875 C 1.628906 -28.945312 1.6875 -33.929688 1.6875 -39.421875 C 2.914062 -39.460938 4.648438 -39.445312 6.890625 -39.375 C 7.597656 -39.332031 8.921875 -39.3125 10.859375 -39.3125 C 10.898438 -37.894531 10.921875 -34.421875 10.921875 -28.890625 L 10.921875 -27.78125 C 12.148438 -29.757812 13.15625 -31.550781 13.9375 -33.15625 C 15.25 -35.65625 16.503906 -37.742188 17.703125 -39.421875 L 21.390625 -39.375 C 23.296875 -39.445312 25.085938 -39.351562 26.765625 -39.09375 C 26.316406 -37.519531 25.703125 -35.957031 24.921875 -34.40625 C 24.140625 -32.863281 23.035156 -30.859375 21.609375 -28.390625 L 21.28125 -27.828125 C 19.863281 -25.585938 18.5 -23.015625 17.1875 -20.109375 Z M 26.828125 -0.109375 "/></g></g></g><g fill="#423226" fill-opacity="1"><g transform="translate(124.341341, 273.333323)"><g><path d="M 11.03125 -29.0625 C 11.21875 -29.03125 11.890625 -29.015625 13.046875 -29.015625 C 13.273438 -29.046875 13.742188 -29.0625 14.453125 -29.0625 C 14.898438 -29.0625 15.21875 -29.046875 15.40625 -29.015625 C 16.707031 -28.929688 17.945312 -28.675781 19.125 -28.25 C 20.300781 -27.820312 21.242188 -27.253906 21.953125 -26.546875 C 23.035156 -25.679688 23.742188 -24.332031 24.078125 -22.5 C 24.410156 -20.675781 24.578125 -18.550781 24.578125 -16.125 L 24.578125 -14.28125 C 24.472656 -11.101562 24.285156 -8.429688 24.015625 -6.265625 C 23.753906 -4.109375 23.3125 -2.65625 22.6875 -1.90625 C 21.9375 -0.863281 20.859375 -0.140625 19.453125 0.265625 C 18.054688 0.679688 16.425781 0.890625 14.5625 0.890625 C 13.851562 0.890625 12.863281 0.851562 11.59375 0.78125 C 10.394531 0.707031 9.476562 0.671875 8.84375 0.671875 C 6.863281 0.296875 5.128906 -0.539062 3.640625 -1.84375 C 2.484375 -2.96875 1.679688 -4.378906 1.234375 -6.078125 C 0.785156 -7.773438 0.5625 -9.6875 0.5625 -11.8125 L 0.5 -18.203125 C 0.394531 -19.210938 0.519531 -20.664062 0.875 -22.5625 C 1.226562 -24.46875 1.585938 -25.550781 1.953125 -25.8125 C 2.367188 -26.863281 3.441406 -27.664062 5.171875 -28.21875 C 6.910156 -28.78125 8.863281 -29.0625 11.03125 -29.0625 Z M 9.859375 -17.75 C 9.816406 -17.375 9.773438 -16.859375 9.734375 -16.203125 C 9.703125 -15.554688 9.6875 -15.066406 9.6875 -14.734375 L 9.625 -13.609375 C 9.625 -12.671875 9.585938 -11.644531 9.515625 -10.53125 C 9.554688 -9.707031 9.875 -9.035156 10.46875 -8.515625 C 11.070312 -7.992188 11.742188 -7.734375 12.484375 -7.734375 C 13.234375 -7.734375 13.984375 -7.898438 14.734375 -8.234375 C 14.953125 -8.347656 15.226562 -8.960938 15.5625 -10.078125 L 15.625 -10.359375 C 15.84375 -12.222656 15.953125 -13.585938 15.953125 -14.453125 C 15.953125 -15.347656 15.878906 -16.148438 15.734375 -16.859375 C 15.546875 -17.828125 15.179688 -18.585938 14.640625 -19.140625 C 14.097656 -19.703125 13.414062 -19.984375 12.59375 -19.984375 C 12.445312 -19.984375 12.148438 -19.945312 11.703125 -19.875 C 10.765625 -19.582031 10.222656 -19.171875 10.078125 -18.640625 Z M 9.859375 -17.75 "/></g></g></g><g fill="#423226" fill-opacity="1"><g transform="translate(150.545837, 273.333323)"><g><path d="M 3.25 -39.8125 L 3.8125 -39.875 C 5.082031 -40.019531 6.179688 -40.09375 7.109375 -40.09375 C 8.191406 -40.09375 8.863281 -39.890625 9.125 -39.484375 C 9.125 -35.640625 9.144531 -32.578125 9.1875 -30.296875 L 9.234375 -26.546875 L 9.234375 -25.484375 L 6.265625 -25.484375 C 5.816406 -25.441406 5 -25.421875 3.8125 -25.421875 C 2.65625 -25.421875 1.796875 -25.476562 1.234375 -25.59375 L 1.171875 -28.84375 L 1.171875 -32.921875 C 1.171875 -34.640625 1.226562 -36.898438 1.34375 -39.703125 L 2.234375 -39.703125 Z M 3.25 -39.8125 "/></g></g></g><g fill="#423226" fill-opacity="1"><g transform="translate(162.024386, 273.333323)"><g><path d="M 10.1875 -25.984375 C 10.226562 -25.984375 10.238281 -25.992188 10.21875 -26.015625 C 10.195312 -26.035156 10.207031 -26.046875 10.25 -26.046875 C 11.144531 -26.640625 12.179688 -27.113281 13.359375 -27.46875 C 14.535156 -27.820312 15.703125 -28 16.859375 -28 C 19.316406 -28 21.21875 -27.398438 22.5625 -26.203125 C 23.613281 -25.273438 24.140625 -22.195312 24.140625 -16.96875 C 24.140625 -15.4375 24.101562 -13.101562 24.03125 -9.96875 C 23.945312 -7.28125 23.90625 -5.359375 23.90625 -4.203125 C 23.90625 -2.929688 23.945312 -1.507812 24.03125 0.0625 C 21.96875 0.351562 19.945312 0.460938 17.96875 0.390625 L 15.34375 0.390625 C 15.269531 -0.722656 15.234375 -2.890625 15.234375 -6.109375 L 15.234375 -8.90625 L 15.171875 -12.875 C 15.140625 -13.101562 15.125 -13.476562 15.125 -14 C 15.082031 -15.125 14.976562 -15.984375 14.8125 -16.578125 C 14.644531 -17.171875 14.492188 -17.539062 14.359375 -17.6875 C 14.234375 -17.84375 14.039062 -18.03125 13.78125 -18.25 C 13.476562 -18.4375 13.046875 -18.53125 12.484375 -18.53125 C 11.816406 -18.53125 11.21875 -18.285156 10.6875 -17.796875 C 10.164062 -17.316406 9.890625 -16.519531 9.859375 -15.40625 C 9.816406 -14.84375 9.796875 -13.984375 9.796875 -12.828125 C 9.796875 -11.890625 9.832031 -10.523438 9.90625 -8.734375 C 9.988281 -6.867188 10.03125 -5.46875 10.03125 -4.53125 C 10.03125 -2.851562 9.953125 -1.363281 9.796875 -0.0625 C 8.785156 0.207031 7.972656 0.367188 7.359375 0.421875 C 6.742188 0.472656 6.0625 0.484375 5.3125 0.453125 C 4.976562 0.410156 4.441406 0.390625 3.703125 0.390625 C 2.835938 0.390625 1.992188 0.425781 1.171875 0.5 L 1.171875 -3.96875 L 1.125 -10.46875 C 1.082031 -13.457031 1.0625 -18.851562 1.0625 -26.65625 C 1.0625 -33.789062 1.097656 -38.53125 1.171875 -40.875 C 2.367188 -40.726562 3.300781 -40.65625 3.96875 -40.65625 C 4.601562 -40.65625 5.222656 -40.691406 5.828125 -40.765625 L 6.78125 -40.875 C 8.007812 -40.988281 8.660156 -41.046875 8.734375 -41.046875 C 9.628906 -41.046875 10.097656 -40.878906 10.140625 -40.546875 C 10.210938 -39.492188 10.25 -37.441406 10.25 -34.390625 L 10.1875 -29.28125 Z M 10.1875 -25.984375 "/></g></g></g><g fill="#423226" fill-opacity="1"><g transform="translate(188.228883, 273.333323)"><g><path d="M 25.375 -28.171875 C 25.375 -27.984375 25.398438 -27.664062 25.453125 -27.21875 C 25.503906 -26.769531 25.53125 -26.359375 25.53125 -25.984375 C 25.5 -25.015625 25.484375 -23.554688 25.484375 -21.609375 C 25.484375 -19.003906 25.5 -17.046875 25.53125 -15.734375 L 25.53125 -12.375 L 25.59375 -9.015625 C 25.59375 -6.816406 25.535156 -4.554688 25.421875 -2.234375 L 25.421875 -1.6875 C 25.421875 -1.082031 25.34375 -0.617188 25.1875 -0.296875 C 25.039062 0.015625 24.65625 0.226562 24.03125 0.34375 L 16.90625 0.34375 C 16.050781 0.0703125 15.625 -0.429688 15.625 -1.171875 L 15.625 -1.5625 C 14.6875 -0.96875 13.65625 -0.492188 12.53125 -0.140625 C 11.414062 0.210938 10.335938 0.390625 9.296875 0.390625 C 7.316406 0.390625 5.644531 -0.410156 4.28125 -2.015625 C 2.914062 -3.617188 1.894531 -5.601562 1.21875 -7.96875 C 0.550781 -10.34375 0.21875 -12.648438 0.21875 -14.890625 C 0.21875 -17.359375 0.664062 -19.585938 1.5625 -21.578125 C 2.457031 -23.578125 3.6875 -25.15625 5.25 -26.3125 C 6.820312 -27.476562 8.5625 -28.078125 10.46875 -28.109375 C 11.625 -28.109375 12.707031 -28.015625 13.71875 -27.828125 C 14.726562 -27.640625 15.363281 -27.414062 15.625 -27.15625 C 15.625 -27.34375 15.585938 -27.585938 15.515625 -27.890625 C 15.441406 -28.191406 15.457031 -28.414062 15.5625 -28.5625 C 15.644531 -28.632812 15.910156 -28.671875 16.359375 -28.671875 C 17.023438 -28.671875 17.90625 -28.625 19 -28.53125 C 20.101562 -28.4375 20.804688 -28.375 21.109375 -28.34375 L 24.640625 -28.171875 Z M 8.796875 -13.78125 C 8.796875 -12.132812 9.164062 -10.757812 9.90625 -9.65625 C 10.65625 -8.5625 11.664062 -8.015625 12.9375 -8.015625 C 13.757812 -8.015625 14.351562 -8.238281 14.71875 -8.6875 C 15.09375 -9.132812 15.328125 -9.726562 15.421875 -10.46875 C 15.515625 -11.21875 15.5625 -12.335938 15.5625 -13.828125 L 15.5625 -15.28125 C 15.5625 -16.894531 15.535156 -17.988281 15.484375 -18.5625 C 15.429688 -19.144531 15.265625 -19.535156 14.984375 -19.734375 C 14.703125 -19.941406 14.207031 -20.046875 13.5 -20.046875 C 12.300781 -20.046875 11.328125 -19.71875 10.578125 -19.0625 C 9.835938 -18.414062 9.351562 -17.625 9.125 -16.6875 C 8.90625 -15.9375 8.796875 -14.96875 8.796875 -13.78125 Z M 8.796875 -13.78125 "/></g></g></g><g fill="#423226" fill-opacity="1"><g transform="translate(216.001163, 273.333323)"><g><path d="M 10.1875 -38.75 C 10.226562 -38.445312 10.273438 -37.445312 10.328125 -35.75 C 10.390625 -34.050781 10.421875 -32.492188 10.421875 -31.078125 L 10.359375 -27.78125 C 11.773438 -28.1875 13.398438 -28.390625 15.234375 -28.390625 C 17.359375 -28.390625 19.128906 -28.128906 20.546875 -27.609375 C 22.234375 -26.929688 23.503906 -25.519531 24.359375 -23.375 C 25.210938 -21.226562 25.640625 -18.753906 25.640625 -15.953125 C 25.535156 -12.859375 25.238281 -10.238281 24.75 -8.09375 C 24.269531 -5.945312 23.300781 -4.109375 21.84375 -2.578125 C 20.382812 -1.046875 18.253906 -0.148438 15.453125 0.109375 L 15.515625 0.109375 C 15.328125 0.148438 15.046875 0.171875 14.671875 0.171875 C 12.878906 0.171875 11.460938 -0.519531 10.421875 -1.90625 L 10.421875 -0.5 C 10.421875 -0.28125 10.328125 -0.078125 10.140625 0.109375 C 9.128906 0.265625 7.96875 0.34375 6.65625 0.34375 L 2.6875 0.21875 L 1.125 0.21875 C 1.082031 -1.226562 1.0625 -3.578125 1.0625 -6.828125 C 1.0625 -11.160156 1.117188 -15.640625 1.234375 -20.265625 C 1.378906 -26.546875 1.453125 -31.703125 1.453125 -35.734375 L 1.453125 -39.53125 C 2.679688 -39.789062 4.046875 -39.921875 5.546875 -39.921875 C 6.703125 -39.921875 7.765625 -39.851562 8.734375 -39.71875 C 9.703125 -39.59375 10.1875 -39.476562 10.1875 -39.375 Z M 17.1875 -17.578125 C 17 -18.816406 16.519531 -19.753906 15.75 -20.390625 C 14.988281 -21.023438 13.976562 -21.34375 12.71875 -21.34375 C 11.851562 -21.34375 11.253906 -21.207031 10.921875 -20.9375 C 10.585938 -20.675781 10.375 -20.15625 10.28125 -19.375 C 10.1875 -18.59375 10.140625 -17.191406 10.140625 -15.171875 C 10.140625 -12.453125 10.320312 -10.46875 10.6875 -9.21875 C 11.0625 -7.96875 11.941406 -7.34375 13.328125 -7.34375 C 14.597656 -7.34375 15.625 -8.039062 16.40625 -9.4375 C 17.1875 -10.832031 17.578125 -12.484375 17.578125 -14.390625 C 17.578125 -15.878906 17.46875 -16.925781 17.25 -17.53125 L 17.53125 -17.359375 Z M 17.1875 -17.578125 "/></g></g></g><g fill="#423226" fill-opacity="1"><g transform="translate(243.101537, 273.333323)"><g><path d="M 10.421875 -40.484375 C 10.421875 -39.472656 10.4375 -38.632812 10.46875 -37.96875 C 10.46875 -37.59375 10.503906 -36.921875 10.578125 -35.953125 L 10.703125 -32.375 C 10.515625 -32.144531 10.210938 -32.03125 9.796875 -32.03125 C 9.535156 -32.03125 9.179688 -32.054688 8.734375 -32.109375 C 8.285156 -32.171875 7.910156 -32.203125 7.609375 -32.203125 C 7.160156 -32.203125 6.453125 -32.238281 5.484375 -32.3125 C 5.109375 -32.351562 4.472656 -32.375 3.578125 -32.375 C 2.609375 -32.375 1.863281 -32.351562 1.34375 -32.3125 C 1.34375 -33.09375 1.304688 -34.117188 1.234375 -35.390625 L 1.171875 -36.28125 C 1.097656 -37.925781 1.082031 -39.382812 1.125 -40.65625 Z M 10.640625 -28.171875 C 10.640625 -26.222656 10.601562 -23.382812 10.53125 -19.65625 L 10.46875 -16.515625 C 10.394531 -13.085938 10.359375 -10.515625 10.359375 -8.796875 C 10.359375 -5.578125 10.429688 -2.757812 10.578125 -0.34375 C 10.390625 -0.0703125 10.003906 0.109375 9.421875 0.203125 C 8.847656 0.296875 8.0625 0.34375 7.0625 0.34375 C 5.894531 0.34375 5.085938 0.320312 4.640625 0.28125 C 3.191406 0.207031 1.960938 0.316406 0.953125 0.609375 C 1.140625 -1.890625 1.234375 -4.40625 1.234375 -6.9375 C 1.234375 -8.507812 1.195312 -10.828125 1.125 -13.890625 C 1.050781 -16.429688 1.015625 -18.632812 1.015625 -20.5 C 1.015625 -23.257812 1.125 -25.925781 1.34375 -28.5 C 1.863281 -28.570312 2.3125 -28.609375 2.6875 -28.609375 C 3.019531 -28.609375 3.28125 -28.59375 3.46875 -28.5625 C 5.78125 -28.445312 7.59375 -28.410156 8.90625 -28.453125 Z M 10.640625 -28.171875 "/></g></g></g><g fill="#423226" fill-opacity="1"><g transform="translate(255.811917, 273.333323)"><g><path d="M 12.9375 -27.9375 C 14.875 -28.019531 16.59375 -28.113281 18.09375 -28.21875 L 18.875 -28.28125 C 19.132812 -28.320312 19.40625 -28.332031 19.6875 -28.3125 C 19.96875 -28.289062 20.203125 -28.28125 20.390625 -28.28125 L 21.671875 -28.28125 C 21.816406 -26.789062 21.890625 -25.929688 21.890625 -25.703125 C 21.890625 -25.515625 21.851562 -24.9375 21.78125 -23.96875 L 21.734375 -23.359375 L 21.671875 -22.125 C 21.671875 -21.863281 21.707031 -21.429688 21.78125 -20.828125 L 13.046875 -20.828125 C 13.046875 -14.890625 13.023438 -11.25 12.984375 -9.90625 C 13.546875 -9.195312 14.554688 -8.675781 16.015625 -8.34375 C 17.472656 -8.007812 18.984375 -7.84375 20.546875 -7.84375 L 21.734375 -7.890625 L 21.734375 -7.390625 L 21.78125 -7.171875 L 21.78125 -7.21875 C 22.007812 -5.65625 22.125 -4.257812 22.125 -3.03125 C 22.125 -1.832031 21.953125 -0.75 21.609375 0.21875 C 20.640625 0.300781 19.648438 0.34375 18.640625 0.34375 C 15.242188 0.34375 12.265625 -0.0546875 9.703125 -0.859375 C 7.148438 -1.671875 5.460938 -3.046875 4.640625 -4.984375 C 4.304688 -7.003906 4.082031 -9.007812 3.96875 -11 C 3.863281 -13 3.8125 -15.285156 3.8125 -17.859375 L 3.8125 -20.65625 C 3.320312 -20.625 2.878906 -20.613281 2.484375 -20.625 C 2.097656 -20.644531 1.753906 -20.65625 1.453125 -20.65625 L -0.21875 -20.65625 L -0.0625 -28.0625 C 0.945312 -28.019531 2.273438 -28 3.921875 -28 L 3.96875 -38.703125 C 4.789062 -38.773438 5.503906 -38.8125 6.109375 -38.8125 C 6.703125 -38.8125 7.410156 -38.773438 8.234375 -38.703125 L 8.625 -38.640625 C 9.519531 -38.566406 10.210938 -38.53125 10.703125 -38.53125 C 11.410156 -38.53125 12.132812 -38.585938 12.875 -38.703125 L 12.875 -28.5 Z M 12.9375 -27.9375 "/></g></g></g><g clip-path="url(#2bf699c078)"><path fill="#f1c488" d="M 187.589844 88.347656 C 148.859375 88.347656 117.464844 119.742188 117.464844 158.472656 C 117.464844 197.199219 148.859375 228.597656 187.589844 228.597656 C 226.320312 228.597656 257.714844 197.199219 257.714844 158.472656 C 257.714844 119.742188 226.320312 88.347656 187.589844 88.347656 " fill-opacity="1" fill-rule="nonzero"/></g><path fill="#d5d5e0" d="M 139.152344 117.769531 C 137.8125 123.882812 138.589844 129.152344 139.714844 135.308594 C 139.851562 133.957031 141.574219 133.261719 142.867188 133.671875 C 144.160156 134.078125 145.078125 135.191406 145.921875 136.257812 L 150.402344 141.898438 C 150.980469 142.628906 151.589844 143.421875 151.667969 144.355469 C 151.738281 145.15625 151.40625 145.933594 151.09375 146.679688 C 148.8125 152.171875 146.738281 158.070312 146.480469 164.019531 C 156.425781 162.882812 167.128906 161.746094 177.070312 160.609375 C 180.320312 160.238281 183.703125 159.820312 186.433594 158.027344 C 187.117188 157.570312 187.742188 157.042969 188.304688 156.445312 C 188.867188 155.84375 189.355469 155.1875 189.765625 154.476562 C 190.175781 153.761719 190.5 153.015625 190.738281 152.226562 C 190.980469 151.441406 191.125 150.636719 191.179688 149.816406 C 191.28125 148.023438 190.929688 146.1875 191.382812 144.449219 C 192.417969 140.496094 197.863281 140.476562 200.21875 137.113281 C 201.359375 135.488281 201.105469 131.738281 202.136719 130.042969 C 203.167969 128.34375 205.3125 127.457031 207.304688 127.652344 C 208.550781 124.75 207.9375 120.765625 207.070312 117.730469 C 206.203125 114.695312 202.703125 107.042969 202.816406 106.035156 C 202.902344 105.320312 204.640625 104.484375 204.941406 103.832031 C 206.820312 99.742188 207.78125 94.84375 206.347656 90.558594 C 204.914062 86.277344 199.3125 83.03125 194.792969 82.9375 C 191.125 82.859375 187.363281 84.601562 185.195312 87.558594 C 184.949219 87.894531 183.609375 89.019531 183.101562 88.945312 C 172.410156 87.425781 160.867188 88.066406 151.742188 93.839844 C 151.132812 94.226562 149.191406 95.605469 148.636719 95.265625 C 146.695312 94.085938 145.167969 92.644531 143.226562 91.464844 C 141.28125 90.285156 138.285156 89.699219 135.980469 90.023438 C 134.589844 90.214844 133.335938 90.980469 132.1875 91.800781 C 129.226562 93.902344 126.792969 96.824219 126.460938 100.441406 C 126.324219 101.941406 126.285156 103.457031 126.765625 104.878906 C 128.710938 110.527344 133.242188 115.773438 139.136719 116.742188 " fill-opacity="1" fill-rule="nonzero"/><path fill="#d5d5e0" d="M 147.867188 157.953125 C 146.582031 164.160156 146.1875 170.421875 146.683594 176.738281 C 147.214844 183.515625 148.777344 190.164062 150.484375 196.742188 C 150.683594 197.515625 151.089844 198.457031 151.890625 198.460938 C 152.09375 197.128906 152.859375 195.394531 154.160156 195.722656 C 154.558594 195.863281 154.898438 196.09375 155.171875 196.417969 C 157.480469 198.71875 159.519531 201.285156 161.761719 203.636719 C 166.199219 208.316406 171.28125 212.132812 177.007812 215.09375 C 177.414062 213.527344 177.414062 211.964844 177.007812 210.398438 C 178.722656 210.167969 180.351562 211.128906 181.917969 211.851562 C 183.429688 212.523438 184.996094 212.996094 186.621094 213.273438 C 188.25 213.546875 189.886719 213.617188 191.53125 213.480469 C 193.175781 213.339844 194.777344 213 196.335938 212.460938 C 197.894531 211.917969 199.363281 211.191406 200.738281 210.277344 C 202.171875 209.300781 203.9375 208.078125 205.464844 208.894531 C 206.054688 209.199219 206.457031 209.777344 206.96875 210.203125 C 208.636719 211.617188 211.25 211.339844 213.085938 210.152344 C 214.921875 208.964844 216.164062 207.078125 217.34375 205.242188 C 218.375 203.644531 219.445312 201.898438 219.261719 200 C 219.042969 197.804688 217.230469 196.179688 215.707031 194.59375 C 211.097656 189.796875 207.992188 183.320312 202.175781 180.097656 C 201.613281 179.792969 201.015625 179.488281 200.621094 178.988281 C 200.175781 178.417969 200.058594 177.667969 200.011719 176.945312 C 199.917969 175.265625 200.128906 173.625 200.648438 172.023438 C 201.164062 170.421875 201.953125 168.964844 203.007812 167.65625 C 204.007812 166.4375 205.214844 165.394531 206.3125 164.261719 C 208.179688 162.347656 209.738281 160.164062 211.292969 157.992188 L 217.710938 149.019531 C 218.222656 148.304688 218.757812 147.527344 218.78125 146.648438 C 218.808594 145.554688 218.058594 144.621094 217.320312 143.816406 C 215.34375 141.664062 212.800781 139.558594 209.886719 139.78125 C 208.289062 139.902344 206.847656 140.71875 205.519531 141.636719 C 204.132812 142.605469 202.847656 143.695312 201.664062 144.90625 C 201.054688 145.539062 200.417969 146.230469 199.578125 146.511719 C 197.738281 147.121094 195.960938 145.582031 194.164062 144.839844 C 192.015625 143.949219 189.515625 144.230469 187.367188 145.140625 C 185.222656 146.054688 183.371094 147.515625 181.589844 149.019531 C 180.652344 149.808594 179.707031 150.628906 178.574219 151.117188 C 177.621094 151.53125 176.578125 151.6875 175.554688 151.90625 C 173.207031 152.40625 170.980469 153.226562 168.867188 154.367188 " fill-opacity="1" fill-rule="nonzero"/><path fill="#5e4935" d="M 202.488281 167.296875 C 201.964844 169.554688 201.628906 171.835938 201.484375 174.148438 C 201.527344 175.585938 200.925781 178.59375 202.027344 179.523438 C 207.761719 184.367188 213.769531 188.105469 216.316406 195.175781 C 216.835938 196.617188 219.199219 198.1875 219.5625 199.675781 C 219.707031 200.132812 219.757812 200.597656 219.714844 201.074219 C 219.625 201.476562 219.476562 201.851562 219.265625 202.199219 C 218.25 204.101562 217.203125 206.042969 215.617188 207.511719 C 214.035156 208.980469 211.308594 212.445312 209.214844 211.921875 C 206.960938 211.355469 204.957031 209.664062 203.796875 208.6875 C 202.546875 207.628906 200.429688 208.6875 199.933594 210.25 C 199.4375 211.8125 198.949219 213.457031 198.894531 215.09375 C 198.789062 218.199219 198.492188 223.277344 197.945312 226.347656 C 200.347656 226.179688 202.554688 224.972656 204.777344 224.046875 C 207 223.125 209.484375 222.78125 211.164062 221.023438 C 211.863281 220.285156 212.742188 217.007812 213.742188 216.84375 C 214.109375 219.976562 216.582031 222.601562 219.320312 223.5 C 219.792969 223.65625 221.824219 223.726562 222.296875 223.589844 C 223.167969 223.339844 223.308594 220.808594 223.550781 219.9375 C 226.253906 210.246094 225.152344 199.945312 226.234375 189.941406 C 226.46875 187.71875 226.839844 185.457031 227.886719 183.488281 C 228.652344 182.054688 228.542969 181.355469 227.710938 179.964844 C 227.457031 179.539062 226.351562 174.585938 227.054688 172.96875 C 227.203125 172.625 227.398438 172.253906 227.304688 171.894531 C 227.183594 171.597656 226.992188 171.363281 226.71875 171.195312 C 223.253906 168.460938 219.574219 165.808594 215.324219 164.617188 C 211.074219 163.425781 206.09375 163.953125 202.878906 166.984375 " fill-opacity="1" fill-rule="nonzero"/><path fill="#5e4935" d="M 226.820312 175.742188 C 226.859375 175.625 226.898438 175.503906 226.9375 175.382812 C 227.804688 172.605469 228.023438 169.671875 228.238281 166.769531 L 230.453125 136.671875 C 230.460938 135.945312 230.601562 135.246094 230.882812 134.570312 C 231.199219 134.015625 231.597656 133.53125 232.082031 133.113281 C 234.703125 130.570312 237.429688 129.640625 240.136719 127.195312 C 240.824219 126.585938 241.902344 126.09375 242.738281 125.695312 C 243.648438 125.25 244.273438 123.40625 245.210938 122.988281 C 246.335938 122.492188 247.246094 121.628906 248.132812 120.777344 C 248.292969 120.4375 248.40625 120.082031 248.476562 119.714844 C 248.546875 119.34375 248.574219 118.972656 248.554688 118.597656 C 248.535156 118.222656 248.46875 117.855469 248.359375 117.496094 C 248.25 117.136719 248.101562 116.792969 247.90625 116.472656 C 247.714844 116.148438 247.488281 115.855469 247.222656 115.585938 C 246.960938 115.320312 246.667969 115.085938 246.347656 114.890625 C 246.027344 114.695312 245.6875 114.539062 245.328125 114.425781 C 244.972656 114.3125 244.605469 114.246094 244.230469 114.222656 C 242.367188 114.097656 240.628906 115.089844 239.0625 116.089844 C 232.71875 120.117188 226.621094 124.890625 219.359375 126.789062 C 216.585938 127.515625 213.769531 127.792969 210.910156 127.628906 C 210.03125 127.578125 209.121094 127.488281 208.304688 127.804688 C 206.320312 128.574219 205.902344 131.152344 205.792969 133.28125 L 205.402344 140.953125 C 206.277344 141.363281 207.273438 140.8125 208.140625 140.375 C 209.574219 139.652344 211.09375 139.242188 212.699219 139.136719 C 213.339844 139.054688 213.957031 139.144531 214.550781 139.40625 C 215.113281 139.753906 215.558594 140.214844 215.886719 140.789062 C 216.550781 141.773438 217.171875 142.785156 217.746094 143.832031 C 218.535156 145.253906 219.265625 146.855469 218.925781 148.441406 C 218.6875 149.585938 217.933594 150.542969 217.199219 151.453125 L 208.960938 161.703125 C 206.988281 164.15625 204.976562 166.671875 203.953125 169.652344 " fill-opacity="1" fill-rule="nonzero"/><path fill="#5e4935" d="M 208.878906 131.753906 C 209.839844 129.507812 209.113281 126.949219 208.621094 124.554688 C 207.335938 118.265625 207.824219 111.777344 208.316406 105.371094 L 208.816406 98.933594 C 209.015625 96.34375 209.363281 93.460938 211.363281 91.800781 C 213.214844 90.28125 215.925781 90.3125 218.25 90.957031 C 220.570312 91.597656 222.738281 92.746094 225.097656 93.183594 C 227.355469 93.605469 229.726562 93.367188 231.90625 94.078125 C 232.824219 94.339844 233.589844 94.828125 234.207031 95.550781 C 235.265625 96.898438 235.121094 98.796875 234.925781 100.5 L 232.644531 120.441406 C 232.433594 122.300781 232.214844 124.179688 231.558594 125.917969 C 230.902344 127.652344 229.75 129.304688 228.09375 130.175781 C 226.765625 130.867188 225.234375 131.007812 223.742188 131.140625 L 214.992188 131.914062 " fill-opacity="1" fill-rule="nonzero"/><path fill="#a9a9b7" d="M 175.855469 146.882812 C 172.878906 149.402344 169.195312 151.003906 165.378906 151.796875 C 161.5625 152.59375 157.621094 152.605469 153.742188 152.195312 C 153.226562 152.105469 152.707031 152.109375 152.191406 152.214844 C 151.496094 152.40625 150.957031 152.945312 150.488281 153.488281 C 148.820312 155.421875 147.566406 157.589844 146.730469 160.003906 C 147.671875 154.675781 148.988281 149.441406 150.683594 144.304688 C 154.507812 145.925781 158.460938 147.117188 162.542969 147.878906 C 164.152344 148.226562 165.78125 148.367188 167.429688 148.304688 C 168.433594 148.214844 169.429688 148.058594 170.414062 147.839844 L 174.367188 147.054688 " fill-opacity="1" fill-rule="nonzero"/><path fill="#a9a9b7" d="M 218.304688 146.648438 C 215.742188 149.6875 212.882812 152.410156 209.722656 154.816406 C 206.5625 157.226562 203.179688 159.261719 199.574219 160.925781 C 198.496094 161.445312 197.382812 161.867188 196.230469 162.191406 C 195.261719 162.421875 194.285156 162.589844 193.296875 162.691406 C 185.378906 163.640625 177.464844 163.628906 169.546875 162.65625 C 170.628906 163.84375 172.285156 164.269531 173.847656 164.671875 C 176.132812 165.261719 178.402344 165.917969 180.652344 166.644531 C 184.710938 167.953125 188.753906 169.492188 193 169.886719 C 197.246094 170.28125 201.839844 169.367188 204.882812 166.375 C 205.71875 165.5 206.476562 164.5625 207.152344 163.5625 L 218.6875 147.523438 " fill-opacity="1" fill-rule="nonzero"/><path fill="#a9a9b7" d="M 174.695312 165.089844 L 182.785156 167.910156 C 183.867188 168.292969 185.046875 168.746094 185.601562 169.738281 C 185.976562 170.414062 185.996094 171.222656 186.007812 171.992188 C 186.035156 174.898438 186.015625 177.800781 185.941406 180.699219 C 187.605469 180.308594 189.285156 179.890625 190.933594 179.484375 L 197.53125 177.835938 C 197.757812 177.828125 197.949219 177.742188 198.105469 177.574219 C 198.261719 177.40625 198.335938 177.207031 198.328125 176.980469 L 198.917969 173.175781 C 199.015625 172.539062 199.101562 171.847656 198.796875 171.28125 C 198.238281 170.253906 196.804688 170.246094 195.636719 170.273438 C 192.964844 170.335938 190.378906 169.902344 187.875 168.972656 " fill-opacity="1" fill-rule="nonzero"/><path fill="#a9a9b7" d="M 192.457031 198.667969 C 193.558594 201.136719 194.542969 203.648438 195.414062 206.203125 C 195.679688 206.980469 195.933594 207.78125 195.859375 208.597656 C 195.710938 210.242188 194.308594 211.445312 193.011719 212.460938 C 194.835938 212.859375 196.660156 211.867188 198.253906 210.917969 L 200.910156 209.339844 C 201.410156 209.035156 201.945312 208.707031 202.160156 208.167969 C 202.4375 207.480469 202.089844 206.679688 201.566406 206.148438 C 201.046875 205.621094 200.371094 205.28125 199.777344 204.835938 C 197.71875 203.285156 196.738281 200.535156 194.488281 199.257812 " fill-opacity="1" fill-rule="nonzero"/><path fill="#a9a9b7" d="M 192.539062 198.503906 C 192.640625 198.199219 193.003906 198.105469 193.316406 198.070312 C 195.648438 197.765625 198.011719 198.488281 200.082031 199.605469 C 202.148438 200.722656 203.980469 202.222656 205.84375 203.65625 C 207.179688 204.679688 208.617188 205.707031 210.285156 205.9375 C 211.417969 206.089844 212.570312 205.859375 213.695312 205.632812 L 216.96875 204.964844 C 216.117188 206.132812 215.226562 207.269531 214.292969 208.371094 C 212.960938 209.949219 211.21875 211.589844 209.171875 211.347656 C 208.304688 211.199219 207.519531 210.863281 206.8125 210.339844 C 202.007812 207.152344 198.933594 201.636719 193.738281 199.121094 " fill-opacity="1" fill-rule="nonzero"/><path fill="#a9a9b7" d="M 147.375 164.835938 C 146.859375 169.316406 147.066406 173.761719 147.996094 178.175781 C 148.929688 182.585938 150.535156 186.738281 152.816406 190.625 C 153.023438 189.675781 153.40625 188.800781 153.960938 188.003906 C 156.261719 191.992188 159.058594 195.597656 162.351562 198.816406 C 165.644531 202.035156 169.3125 204.75 173.351562 206.957031 L 173.269531 202.503906 C 174.382812 203.640625 175.605469 204.644531 176.929688 205.523438 C 178.257812 206.398438 179.660156 207.128906 181.140625 207.710938 C 182.617188 208.292969 184.144531 208.714844 185.710938 208.976562 C 187.277344 209.238281 188.855469 209.335938 190.445312 209.265625 C 191.628906 209.203125 192.839844 209.035156 193.867188 208.445312 C 194.890625 207.855469 195.691406 206.757812 195.640625 205.574219 C 197.367188 207.203125 197.339844 210.320312 195.59375 211.921875 C 194.894531 212.515625 194.109375 212.945312 193.230469 213.207031 C 191.382812 213.832031 189.488281 214.035156 187.546875 213.816406 C 184.085938 213.425781 180.820312 211.6875 177.339844 211.777344 C 177.480469 212.839844 177.289062 214.335938 176.21875 214.386719 C 175.847656 214.371094 175.511719 214.257812 175.207031 214.050781 L 169.253906 210.742188 C 167.203125 209.601562 165.140625 208.457031 163.296875 207.007812 C 159.726562 204.207031 157.101562 200.414062 154.535156 196.664062 C 153.597656 196.398438 153.273438 198.695312 152.40625 198.226562 C 152.277344 198.128906 152.175781 198.007812 152.105469 197.863281 C 150.816406 195.707031 149.71875 193.457031 148.804688 191.117188 C 147.886719 188.777344 147.171875 186.378906 146.652344 183.921875 C 146.132812 181.464844 145.820312 178.980469 145.710938 176.46875 C 145.601562 173.960938 145.699219 171.457031 146 168.964844 " fill-opacity="1" fill-rule="nonzero"/><path fill="#a9a9b7" d="M 166.410156 136.617188 C 168.734375 139.078125 172.066406 140.738281 175.4375 140.476562 C 178.808594 140.214844 182.066406 137.738281 182.675781 134.410156 C 182.894531 133.195312 182.773438 131.929688 182.890625 130.691406 C 182.746094 131.289062 182.53125 131.863281 182.242188 132.410156 C 181.957031 132.953125 181.605469 133.457031 181.1875 133.910156 C 180.773438 134.367188 180.308594 134.765625 179.792969 135.105469 C 179.277344 135.441406 178.726562 135.710938 178.144531 135.910156 C 176.964844 136.296875 175.710938 136.371094 174.46875 136.4375 L 169.992188 136.691406 " fill-opacity="1" fill-rule="nonzero"/><path fill="#a9a9b7" d="M 140.003906 118.511719 C 139.714844 120.707031 139.78125 122.890625 140.203125 125.066406 C 140.628906 127.238281 141.386719 129.289062 142.476562 131.214844 C 142.570312 131.347656 142.625 131.492188 142.640625 131.65625 C 142.621094 131.851562 142.546875 132.023438 142.414062 132.175781 L 140.226562 135.246094 C 139.734375 130.652344 139.375 126.046875 139.152344 121.429688 " fill-opacity="1" fill-rule="nonzero"/><path fill="#a9a9b7" d="M 201.800781 107.621094 C 202.882812 109.140625 203.449219 110.964844 203.929688 112.765625 C 205.277344 117.800781 206.058594 123.207031 204.503906 128.175781 L 207.304688 125.878906 C 207.578125 125.65625 208.007812 125.441406 208.21875 125.710938 C 206.84375 121.523438 205.882812 117.246094 205.328125 112.875 C 205.242188 111.773438 205.039062 110.695312 204.722656 109.640625 C 204.351562 108.601562 203.683594 107.625 202.707031 107.117188 " fill-opacity="1" fill-rule="nonzero"/><path fill="#a9a9b7" d="M 201.703125 107.691406 C 203.527344 110.425781 204.253906 113.980469 204.800781 117.195312 C 205.410156 120.847656 205.464844 124.574219 204.398438 128.148438 C 204.382812 128.203125 204.402344 128.246094 204.453125 128.277344 C 204.503906 128.304688 204.546875 128.300781 204.589844 128.257812 C 205.183594 127.773438 207.4375 125.480469 208.179688 125.808594 C 208.261719 125.84375 208.378906 125.785156 208.34375 125.679688 C 207.160156 122.042969 206.277344 118.332031 205.695312 114.550781 C 205.289062 111.898438 205.359375 108.574219 202.769531 107.019531 C 202.707031 106.988281 202.65625 107.003906 202.617188 107.0625 C 202.582031 107.125 202.59375 107.175781 202.652344 107.21875 C 204.683594 108.433594 204.957031 110.761719 205.234375 112.90625 C 205.507812 114.992188 205.859375 117.058594 206.3125 119.113281 C 206.535156 120.136719 206.785156 121.160156 207.0625 122.171875 C 207.183594 122.632812 207.316406 123.085938 207.449219 123.550781 C 207.53125 123.832031 208.003906 124.917969 207.949219 125.191406 C 207.804688 125.917969 208.222656 124.976562 207.578125 125.574219 C 207.046875 126.058594 206.390625 126.484375 205.832031 126.949219 C 205.664062 127.085938 204.949219 127.765625 204.835938 127.695312 C 204.722656 127.621094 204.996094 126.824219 205.042969 126.597656 C 205.234375 125.683594 205.363281 124.761719 205.429688 123.832031 C 205.546875 121.957031 205.464844 120.09375 205.191406 118.234375 C 204.699219 114.660156 203.9375 110.609375 201.898438 107.5625 C 201.816406 107.441406 201.621094 107.5625 201.703125 107.675781 Z M 201.703125 107.691406 " fill-opacity="1" fill-rule="nonzero"/><path fill="#a9a9b7" d="M 146.039062 100.625 C 144.65625 99.535156 143.246094 98.425781 141.597656 97.816406 C 139.949219 97.203125 137.996094 97.15625 136.527344 98.121094 C 134.957031 99.152344 134.234375 101.203125 134.488281 103.070312 C 134.738281 104.941406 135.847656 106.605469 137.246094 107.867188 C 138.644531 109.132812 140.320312 110.054688 142.007812 110.871094 C 142.949219 107.277344 144.460938 103.941406 146.535156 100.859375 " fill-opacity="1" fill-rule="nonzero"/><path fill="#a9a9b7" d="M 180.859375 167.523438 C 181.632812 167.722656 182.308594 168.097656 182.886719 168.648438 C 183.46875 169.195312 183.878906 169.851562 184.125 170.609375 C 184.429688 171.59375 184.394531 172.644531 184.359375 173.671875 L 184.054688 182.449219 C 185.578125 181.101562 187.265625 180.007812 189.121094 179.167969 C 189.421875 179.066406 189.675781 178.890625 189.875 178.640625 C 190.125 178.25 189.984375 177.726562 189.835938 177.300781 C 189.316406 175.738281 188.789062 174.167969 188.265625 172.597656 C 187.886719 171.46875 187.46875 170.273438 186.546875 169.519531 C 185.933594 169.078125 185.265625 168.753906 184.539062 168.546875 L 182.425781 167.816406 " fill-opacity="1" fill-rule="nonzero"/><path fill="#423226" d="M 213.179688 90.28125 C 211.476562 102.570312 210.226562 114.917969 209.429688 127.316406 L 212.589844 120.929688 C 212.765625 126.953125 212.398438 132.941406 211.488281 138.898438 C 209.214844 139.328125 207.214844 140.3125 205.492188 141.851562 C 205.097656 139.402344 205.03125 136.941406 205.300781 134.476562 C 205.566406 132.007812 206.152344 129.621094 207.0625 127.308594 C 207.324219 126.707031 207.550781 126.085938 207.734375 125.453125 C 208.152344 123.832031 207.898438 122.109375 207.734375 120.449219 C 206.957031 113.019531 207.851562 105.527344 208.742188 98.105469 C 209.082031 95.257812 209.621094 92.0625 211.96875 90.40625 " fill-opacity="1" fill-rule="nonzero"/><path fill="#423226" d="M 212.773438 157.089844 C 211.355469 163.402344 210.230469 169.78125 209.402344 176.214844 C 209.628906 175.1875 210.171875 174.363281 211.03125 173.753906 L 211.03125 177.335938 C 211.003906 177.632812 211.054688 177.914062 211.183594 178.179688 C 211.320312 178.425781 211.578125 178.582031 211.734375 178.816406 C 211.941406 179.199219 212.015625 179.605469 211.960938 180.035156 L 211.757812 187.667969 C 209.199219 185.566406 206.667969 183.445312 204.15625 181.304688 C 203.226562 180.515625 202.265625 179.675781 201.828125 178.539062 C 201.523438 177.726562 201.496094 176.832031 201.480469 175.957031 C 201.441406 173.332031 201.429688 170.578125 202.667969 168.261719 C 203.414062 166.875 204.554688 165.75 205.679688 164.652344 L 212.976562 157.511719 " fill-opacity="1" fill-rule="nonzero"/><path fill="#423226" d="M 212.390625 211.78125 L 211.292969 213.175781 C 210.703125 213.914062 210.074219 214.679688 209.238281 215.09375 C 208.75 215.328125 208.175781 215.464844 207.84375 215.890625 C 207.617188 216.246094 207.496094 216.632812 207.480469 217.054688 L 206.957031 221.503906 C 207.25 220.296875 207.820312 219.238281 208.664062 218.328125 L 208.707031 220.78125 C 208.753906 221.238281 208.6875 221.679688 208.511719 222.105469 C 208.207031 222.714844 207.53125 222.984375 206.902344 223.222656 L 198.234375 226.527344 L 198.808594 217.296875 C 198.898438 215.832031 198.996094 214.347656 199.4375 212.945312 C 199.878906 211.542969 200.707031 210.207031 201.972656 209.460938 C 202.402344 209.179688 202.871094 209.042969 203.382812 209.058594 C 204.089844 209.105469 204.679688 209.582031 205.28125 209.96875 C 206.285156 210.601562 207.371094 211 208.546875 211.160156 C 209.722656 211.316406 210.878906 211.226562 212.011719 210.882812 " fill-opacity="1" fill-rule="nonzero"/><path fill="#423226" d="M 219.023438 92.140625 C 216.667969 104.738281 215.96875 117.433594 216.929688 130.214844 C 216.90625 130.4375 217.042969 130.144531 217.054688 130.367188 L 217.292969 136.214844 L 218.046875 123.625 C 218.570312 114.75 219.101562 105.847656 220.816406 97.125 C 221.25 94.902344 221.570312 92.136719 219.734375 90.804688 " fill-opacity="1" fill-rule="nonzero"/><path fill="#e8e8ef" d="M 146.921875 99.769531 C 148.8125 97.035156 151.738281 95.101562 154.886719 94.011719 C 158.03125 92.917969 161.40625 92.613281 164.738281 92.648438 C 167.4375 92.648438 170.101562 92.972656 172.722656 93.625 C 179.851562 95.503906 185.882812 100.648438 189.671875 106.976562 C 193.457031 113.300781 195.144531 120.738281 195.398438 128.105469 C 195.476562 130.363281 195.429688 132.644531 194.925781 134.84375 C 194.316406 137.441406 193.121094 139.855469 191.925781 142.238281 C 196.75 139.964844 201.117188 136.09375 202.605469 130.980469 C 202.910156 129.976562 203.085938 128.914062 203.628906 128.015625 C 204.175781 127.117188 205.203125 126.40625 206.230469 126.632812 C 206.859375 126.769531 207.640625 127.1875 208.03125 126.675781 C 208.164062 126.457031 208.21875 126.222656 208.195312 125.964844 C 208.234375 120.140625 207.082031 114.566406 204.738281 109.234375 C 204.394531 108.554688 204.136719 107.84375 203.960938 107.105469 C 203.628906 105.339844 204.390625 103.570312 205.058594 101.902344 C 206.09375 99.316406 206.957031 96.613281 207.027344 93.832031 C 207.101562 91.046875 206.300781 88.148438 204.378906 86.136719 C 203.3125 85.085938 202.097656 84.257812 200.730469 83.652344 C 198.164062 82.417969 195.300781 81.648438 192.484375 82.011719 C 189.664062 82.378906 186.914062 84.035156 185.742188 86.625 C 185.496094 87.164062 185.285156 87.777344 184.777344 88.085938 C 184.269531 88.398438 183.582031 88.289062 182.980469 88.171875 C 176.859375 86.976562 170.515625 86.699219 164.398438 87.960938 C 158.28125 89.21875 152.4375 92.03125 148.085938 96.5 " fill-opacity="1" fill-rule="nonzero"/><path fill="#e8e8ef" d="M 188.46875 143.746094 L 199.605469 150.742188 C 200.019531 151.03125 200.464844 151.253906 200.945312 151.402344 C 202.023438 151.671875 203.132812 151.171875 204.128906 150.683594 C 204.496094 150.554688 204.78125 150.316406 204.980469 149.980469 C 205.046875 149.769531 205.046875 149.558594 204.984375 149.34375 C 204.921875 149.132812 204.804688 148.957031 204.632812 148.816406 C 204.289062 148.546875 203.902344 148.363281 203.476562 148.261719 C 201.402344 147.605469 199.292969 147.074219 197.15625 146.660156 C 196.082031 146.453125 194.972656 146.265625 194.046875 145.683594 C 193.390625 145.273438 192.527344 144.675781 191.957031 145.183594 " fill-opacity="1" fill-rule="nonzero"/><path fill="#e8e8ef" d="M 201.785156 144.027344 L 207.917969 141.804688 C 208.308594 141.636719 208.714844 141.535156 209.136719 141.5 C 209.734375 141.53125 210.296875 141.691406 210.816406 141.988281 C 212.765625 142.925781 214.605469 144.046875 216.332031 145.347656 C 216.941406 145.804688 217.609375 146.3125 218.371094 146.261719 C 217.359375 144.132812 216.03125 142.230469 214.382812 140.546875 C 213.875 140.027344 213.273438 139.503906 212.558594 139.449219 C 211.695312 139.382812 210.953125 139.984375 210.160156 140.34375 C 209 140.867188 207.679688 140.863281 206.429688 141.113281 C 205.179688 141.359375 203.851562 142 203.445312 143.207031 " fill-opacity="1" fill-rule="nonzero"/><path fill="#e8e8ef" d="M 184.761719 182.550781 C 186.40625 182.703125 187.890625 181.601562 189.507812 181.230469 C 192.386719 180.570312 195.238281 182.292969 197.613281 184.058594 C 204.1875 188.941406 209.964844 194.636719 214.945312 201.140625 C 215.878906 202.359375 216.808594 203.644531 218.0625 204.542969 C 219.34375 201.621094 217.691406 198.296875 215.949219 195.625 C 213.167969 191.351562 210.046875 187.34375 206.59375 183.597656 C 204.242188 181.042969 201.324219 178.453125 197.855469 178.582031 C 196.734375 178.671875 195.644531 178.90625 194.582031 179.285156 L 189.785156 180.757812 " fill-opacity="1" fill-rule="nonzero"/><path fill="#e8e8ef" d="M 191.726562 144.632812 C 191.726562 144.527344 191.523438 144.5625 191.503906 144.664062 C 191.484375 144.769531 191.5625 144.867188 191.632812 144.945312 C 194.171875 147.703125 197.105469 150.355469 200.730469 151.296875 C 201.367188 151.488281 202.015625 151.546875 202.675781 151.472656 C 204.0625 151.257812 205.171875 150.117188 206.558594 149.90625 C 205.398438 148.871094 204.109375 148.023438 202.699219 147.371094 C 202.136719 147.082031 201.542969 146.898438 200.914062 146.824219 C 200.308594 146.820312 199.707031 146.867188 199.109375 146.96875 C 197.910156 147.089844 196.734375 146.964844 195.585938 146.59375 C 194.441406 146.222656 193.414062 145.640625 192.511719 144.839844 C 192.429688 144.769531 192.320312 144.691406 192.230469 144.753906 C 192.140625 144.8125 192.308594 144.96875 192.320312 144.863281 " fill-opacity="1" fill-rule="nonzero"/><path fill="#d5d5e0" d="M 189.503906 91.414062 L 190.988281 90.28125 C 191.898438 89.578125 192.890625 88.851562 194.027344 88.714844 C 195.039062 88.59375 196.046875 88.949219 196.972656 89.378906 C 197.703125 89.691406 198.371094 90.109375 198.972656 90.628906 C 200.351562 91.90625 200.875 93.914062 200.730469 95.800781 C 200.589844 97.691406 199.863281 99.453125 199.070312 101.160156 C 196.179688 97.320312 192.632812 94.246094 188.425781 91.929688 " fill-opacity="1" fill-rule="nonzero"/><path fill="#775e4a" d="M 227.527344 93.894531 C 226.484375 97.671875 225.433594 101.5 225.359375 105.410156 C 225.28125 109.699219 226.375 114.003906 225.753906 118.25 C 225.304688 121.335938 224.003906 124.726562 225.648438 127.375 C 225.699219 125.425781 226.296875 123.660156 227.441406 122.082031 L 225.734375 143.050781 C 225.390625 147.273438 225.046875 151.492188 224.570312 155.699219 C 224.15625 159.347656 223.640625 162.964844 222.871094 166.542969 C 222.515625 168.183594 222.105469 169.832031 222.050781 171.511719 C 221.996094 173.289062 222.335938 175.054688 222.53125 176.824219 C 222.882812 179.988281 222.78125 183.136719 222.230469 186.269531 L 224.230469 183.988281 C 224.265625 186.664062 224.757812 189.253906 225.714844 191.753906 C 226.769531 189.464844 227.476562 187.078125 227.84375 184.585938 C 227.9375 183.945312 227.632812 181.105469 227.457031 180.324219 C 226.917969 177.929688 227.15625 175.433594 227.402344 172.988281 L 230.914062 138.089844 C 231.050781 136.761719 231.191406 135.402344 231.765625 134.199219 C 232.269531 133.25 232.902344 132.402344 233.671875 131.65625 C 237.261719 127.871094 241.402344 124.84375 246.09375 122.570312 C 246.84375 122.207031 247.640625 121.839844 248.132812 121.164062 C 249.042969 119.914062 248.550781 118.140625 247.761719 116.816406 C 247.042969 115.597656 245.972656 113.890625 244.570312 114.011719 C 243.683594 114.085938 235.632812 118.675781 232.917969 120.128906 C 233.308594 114.226562 234.058594 108.375 235.171875 102.566406 C 235.679688 99.90625 236.039062 96.609375 233.859375 95 C 232.359375 93.890625 230.234375 94.117188 228.582031 93.242188 " fill-opacity="1" fill-rule="nonzero"/><path fill="#775e4a" d="M 225.199219 185.441406 C 222.492188 190.789062 224.523438 197.414062 222.65625 203.109375 C 222.023438 205.039062 220.953125 206.808594 220.429688 208.769531 C 219.667969 211.605469 220.046875 214.785156 218.589844 217.335938 C 218.648438 215.859375 218.515625 214.398438 218.195312 212.957031 C 217.03125 215.527344 217.070312 218.460938 217.128906 221.28125 C 217.097656 221.683594 217.1875 222.0625 217.386719 222.414062 C 217.574219 222.632812 217.796875 222.804688 218.058594 222.917969 C 219.433594 223.632812 220.886719 224.113281 222.414062 224.359375 C 225.480469 212.238281 224.542969 199.394531 227.453125 187.246094 " fill-opacity="1" fill-rule="nonzero"/><path fill="#423226" d="M 230.332031 134.859375 C 230.285156 133.058594 230.265625 131.148438 231.179688 129.601562 C 231.933594 128.324219 233.222656 127.472656 234.46875 126.664062 L 246.28125 118.996094 C 246.761719 118.691406 247.324219 118.359375 247.871094 118.515625 C 248.578125 118.714844 248.847656 119.644531 248.601562 120.339844 C 248.355469 121.039062 247.761719 121.53125 247.191406 121.996094 L 243.238281 125.214844 C 242.351562 125.9375 241.464844 126.664062 240.554688 127.34375 C 237.691406 129.539062 234.648438 131.449219 231.433594 133.078125 " fill-opacity="1" fill-rule="nonzero"/><path fill="#211528" d="M 155.265625 113.148438 C 152.792969 114.089844 150.402344 116.683594 150.3125 119.402344 C 150.25 121.164062 152.988281 121.1875 153.050781 119.425781 C 153.109375 117.847656 154.910156 116.1875 156.308594 115.683594 C 158.046875 115.054688 159.722656 115.738281 160.871094 117.09375 C 162.015625 118.445312 163.960938 116.503906 162.820312 115.167969 C 162.375 114.632812 161.855469 114.175781 161.265625 113.796875 C 160.675781 113.421875 160.042969 113.140625 159.363281 112.960938 C 158.6875 112.78125 158 112.707031 157.300781 112.738281 C 156.601562 112.769531 155.921875 112.90625 155.265625 113.148438 Z M 155.265625 113.148438 " fill-opacity="1" fill-rule="nonzero"/><path fill="#211528" d="M 180.371094 113.433594 C 180.785156 111.609375 182.125 110.136719 184.085938 110.027344 C 185.5 109.945312 187.667969 110.589844 188.394531 111.890625 C 189.257812 113.429688 191.632812 112.074219 190.769531 110.527344 C 189.476562 108.226562 186.171875 107.070312 183.632812 107.316406 C 182.921875 107.394531 182.242188 107.582031 181.589844 107.875 C 180.9375 108.167969 180.347656 108.554688 179.820312 109.039062 C 179.289062 109.519531 178.847656 110.070312 178.492188 110.6875 C 178.136719 111.308594 177.886719 111.96875 177.738281 112.667969 C 177.351562 114.398438 179.984375 115.15625 180.371094 113.433594 Z M 180.371094 113.433594 " fill-opacity="1" fill-rule="nonzero"/><path fill="#211528" d="M 184.082031 130.738281 C 184.59375 129.046875 181.953125 128.304688 181.445312 129.988281 C 181.082031 131.167969 180.5 132.230469 179.695312 133.167969 C 179.835938 132.273438 179.863281 131.375 179.78125 130.472656 C 179.617188 128.34375 179.414062 126.167969 178.5625 124.210938 C 176.972656 120.558594 172.945312 117.824219 169.242188 120.496094 C 165.75 123.011719 166.136719 127.65625 167.570312 131.238281 C 168.25 132.863281 169.214844 134.296875 170.46875 135.53125 C 170.628906 135.722656 170.792969 135.902344 170.964844 136.078125 C 169.804688 135.804688 168.710938 135.371094 167.679688 134.773438 C 166.160156 133.894531 164.746094 136.246094 166.277344 137.125 C 169.785156 139.132812 173.8125 139.730469 177.582031 138.074219 C 179.140625 137.378906 180.492188 136.390625 181.625 135.109375 C 182.757812 133.832031 183.578125 132.375 184.082031 130.738281 Z M 184.082031 130.738281 " fill-opacity="1" fill-rule="nonzero"/><g clip-path="url(#2167ef4f4e)"><path fill="#211528" d="M 250.351562 118.707031 C 250.027344 115.523438 247.375 111.101562 243.609375 112.605469 C 240.464844 113.875 237.371094 115.703125 234.445312 117.585938 C 234.964844 114.320312 235.4375 111.050781 235.859375 107.773438 C 236.265625 104.609375 236.625 101.445312 236.941406 98.277344 C 237.050781 97.160156 237.210938 96 236.445312 95.066406 C 235.726562 94.1875 234.371094 93.714844 233.363281 93.285156 C 230.832031 92.210938 228.1875 91.65625 225.4375 91.617188 C 224.085938 91.617188 222.746094 91.996094 221.542969 91.25 C 220.335938 90.503906 219.414062 89.476562 218.367188 88.578125 C 218.015625 88.238281 217.597656 88.019531 217.117188 87.917969 C 216.640625 87.816406 216.167969 87.851562 215.710938 88.019531 C 214.117188 88.503906 212.554688 89.253906 211.003906 89.84375 C 210.109375 90.199219 208.847656 90.421875 208.265625 91.25 C 207.660156 88.753906 206.457031 86.585938 204.652344 84.753906 C 198.488281 78.421875 187.433594 79.738281 183.171875 87.492188 C 183.160156 87.511719 183.152344 87.53125 183.140625 87.554688 C 181.246094 87.039062 179.320312 86.6875 177.363281 86.496094 C 174.253906 85.320312 170.746094 84.410156 169.132812 81.238281 C 169.089844 81.171875 169.035156 81.117188 168.964844 81.074219 C 168.894531 81.035156 168.816406 81.015625 168.738281 81.015625 C 168.65625 81.015625 168.582031 81.035156 168.511719 81.074219 C 168.441406 81.117188 168.386719 81.171875 168.34375 81.238281 C 167.882812 82.269531 167.589844 83.34375 167.460938 84.464844 C 165.753906 83.464844 163.40625 81.027344 162.15625 79.46875 C 161.882812 79.128906 161.40625 79.433594 161.375 79.773438 C 161.21875 81.386719 162.136719 84.136719 162.351562 85.734375 C 160.140625 86.050781 159.585938 85.453125 157.894531 83.832031 C 157.75 83.695312 157.589844 83.664062 157.40625 83.734375 C 157.222656 83.804688 157.125 83.9375 157.113281 84.136719 C 156.894531 86.777344 157.039062 86.671875 157.488281 89.554688 C 154.726562 90.710938 152.160156 92.210938 149.792969 94.050781 C 146.195312 90.863281 141.398438 87.699219 136.464844 88.429688 C 131.703125 89.128906 127.753906 92.65625 125.917969 97.015625 C 125.476562 98.054688 125.175781 99.132812 125.007812 100.25 C 124.84375 101.367188 124.820312 102.484375 124.941406 103.609375 C 125.0625 104.730469 125.320312 105.820312 125.71875 106.875 C 126.117188 107.933594 126.640625 108.921875 127.292969 109.84375 C 129.609375 113.164062 133.527344 116.714844 137.660156 117.769531 C 137.097656 120.984375 136.933594 124.222656 137.171875 127.476562 C 137.414062 130.734375 138.046875 133.910156 139.074219 137.007812 C 139.421875 138.046875 141.003906 138.476562 141.574219 137.359375 L 142.832031 134.898438 C 144.53125 138.464844 146.921875 141.480469 150.007812 143.945312 C 146.871094 151.09375 145.316406 158.851562 144.835938 166.625 C 144.347656 174.59375 144.953125 182.800781 147.125 190.503906 C 148.167969 194.1875 149.601562 197.804688 151.6875 201.042969 C 152.453125 202.238281 154.121094 201.714844 154.246094 200.371094 C 154.300781 199.8125 154.382812 199.257812 154.464844 198.707031 C 156.183594 201.414062 158.46875 203.878906 160.613281 206.039062 C 165.378906 210.832031 171.097656 214.824219 177.609375 216.800781 C 178.679688 217.128906 179.480469 216.117188 179.308594 215.128906 C 179.179688 214.394531 179.050781 213.660156 178.921875 212.925781 C 182.699219 214.792969 186.957031 215.921875 191.140625 215.445312 C 193.367188 215.1875 195.496094 214.585938 197.53125 213.636719 C 196.921875 218.078125 196.441406 222.542969 195.957031 227.003906 C 195.878906 227.707031 196.628906 228.421875 197.3125 228.386719 C 200.933594 228.183594 203.519531 225.835938 206.78125 224.609375 C 208.300781 224.039062 210.058594 224.359375 211.160156 222.988281 C 211.859375 222.097656 212.492188 221.160156 213.058594 220.175781 C 213.570312 221.351562 214.320312 222.355469 215.304688 223.179688 C 217.511719 225.003906 220.398438 225.390625 223.148438 225.695312 C 223.9375 225.785156 224.453125 225.007812 224.53125 224.335938 C 225.507812 215.949219 226.488281 207.558594 227.472656 199.167969 C 227.519531 199.011719 227.539062 198.847656 227.527344 198.683594 C 227.542969 198.53125 227.535156 198.378906 227.5 198.230469 C 227.316406 195.664062 227.429688 193.113281 227.839844 190.574219 C 228.089844 189.191406 228.433594 187.832031 228.871094 186.5 C 229.234375 185.386719 229.785156 184.289062 230.027344 183.152344 C 230.246094 182.125 230.191406 181.070312 229.546875 180.214844 C 228.847656 179.28125 227.820312 179.125 227.871094 177.738281 C 227.917969 176.480469 228.59375 175.183594 228.914062 173.980469 C 229.253906 172.6875 229.511719 171.382812 229.695312 170.058594 C 230.515625 164.371094 230.367188 158.5625 230.773438 152.835938 C 231.203125 146.785156 231.898438 140.761719 232.859375 134.765625 C 232.859375 134.738281 232.859375 134.714844 232.859375 134.691406 C 235.796875 131.570312 239.53125 129.359375 243.082031 127.007812 C 246.179688 124.9375 250.804688 123.113281 250.351562 118.707031 Z M 198.199219 210.1875 C 195.886719 211.621094 193.378906 212.480469 190.671875 212.757812 C 186.269531 213.171875 181.851562 211.601562 178.105469 209.367188 C 177.914062 209.152344 177.675781 209.027344 177.390625 209 C 176.625 208.785156 175.949219 209.355469 175.765625 210.042969 C 175.703125 210.257812 175.695312 210.476562 175.734375 210.695312 C 175.898438 211.605469 176.054688 212.519531 176.214844 213.433594 C 171.046875 211.425781 166.453125 208.050781 162.53125 204.117188 C 159.894531 201.460938 156.679688 197.984375 155.316406 194.5625 C 155.371094 193.226562 153.421875 192.671875 152.769531 193.816406 C 152.539062 194.058594 152.445312 194.347656 152.488281 194.679688 C 152.351562 195.195312 152.226562 195.71875 152.117188 196.246094 C 149.75 191.324219 148.539062 185.800781 147.90625 180.425781 C 146.960938 172.429688 147.285156 164.488281 148.882812 156.59375 C 149.632812 152.800781 150.757812 149.125 152.257812 145.558594 C 153.699219 146.480469 155.21875 147.242188 156.816406 147.851562 C 159.585938 148.902344 162.492188 149.269531 165.429688 149.488281 C 169.320312 149.773438 178.132812 145.941406 176.410156 146.300781 C 172.957031 147.023438 169.367188 147.007812 165.859375 146.773438 C 163.324219 146.605469 160.824219 146.324219 158.402344 145.511719 C 156.757812 144.945312 155.199219 144.199219 153.726562 143.273438 C 152.253906 142.347656 150.902344 141.265625 149.679688 140.027344 C 148.453125 138.792969 147.386719 137.433594 146.472656 135.953125 C 145.5625 134.46875 144.828125 132.902344 144.277344 131.253906 C 143.9375 130.210938 142.351562 129.789062 141.777344 130.902344 L 140.746094 132.925781 C 139.5 127.636719 139.4375 122.335938 140.554688 117.019531 C 140.597656 116.800781 140.59375 116.585938 140.539062 116.371094 C 140.480469 116.15625 140.382812 115.964844 140.238281 115.796875 C 140.09375 115.628906 139.921875 115.5 139.71875 115.414062 C 139.515625 115.324219 139.304688 115.28125 139.085938 115.292969 C 137.050781 115.058594 135.214844 113.699219 133.632812 112.488281 C 132.035156 111.308594 130.667969 109.910156 129.523438 108.289062 C 129.007812 107.554688 128.589844 106.769531 128.273438 105.929688 C 127.957031 105.089844 127.753906 104.226562 127.65625 103.335938 C 127.558594 102.441406 127.578125 101.554688 127.707031 100.667969 C 127.835938 99.777344 128.074219 98.921875 128.421875 98.09375 C 129.839844 94.648438 132.941406 91.824219 136.664062 91.15625 C 140.617188 90.449219 144.730469 93.25 147.683594 95.847656 C 145.554688 97.835938 144.609375 105.292969 145.25 103.664062 C 147.332031 98.394531 153.058594 94.539062 158.046875 92.324219 C 166.285156 88.691406 176.246094 87.90625 184.800781 90.871094 C 187.679688 91.917969 190.386719 93.304688 192.914062 95.035156 C 194.390625 96.011719 188.789062 89.464844 185.828125 88.410156 C 189.527344 82.484375 198.253906 81.746094 203.003906 87.015625 C 207.902344 92.441406 206.238281 100.5 201.972656 105.710938 C 201.183594 106.09375 200.730469 107.109375 201.582031 107.8125 C 204.128906 109.945312 204.875 114.15625 205.554688 117.246094 C 206.183594 120.117188 206.535156 123.023438 206.605469 125.964844 L 204.738281 124.804688 C 204.554688 124.695312 204.359375 124.636719 204.148438 124.621094 C 203.9375 124.605469 203.730469 124.636719 203.535156 124.714844 C 203.335938 124.792969 203.167969 124.910156 203.023438 125.066406 C 202.882812 125.222656 202.78125 125.402344 202.71875 125.605469 C 201.867188 129.5 200.203125 133.007812 197.730469 136.132812 C 195.28125 139.203125 191.96875 142.140625 188.070312 143.082031 C 186.359375 143.496094 190.4375 145.242188 191.226562 144.910156 C 192.597656 146.214844 194.597656 147.039062 196.324219 147.589844 C 198.933594 148.414062 201.746094 148.714844 204.425781 149.199219 C 206.148438 149.5 202.757812 146.203125 201.40625 146.003906 C 202.4375 145.199219 206.171875 142.902344 206.273438 142.84375 C 207.308594 142.289062 208.371094 141.796875 209.460938 141.363281 C 210.625 140.90625 212.199219 140.046875 213.234375 141.085938 C 214.019531 141.875 214.703125 142.796875 215.421875 143.644531 C 216.136719 144.496094 217.433594 145.550781 217.78125 146.566406 C 218.140625 147.632812 216.5625 149.058594 215.996094 149.859375 L 213.5625 153.1875 L 208.871094 159.621094 C 207.390625 161.648438 205.972656 163.878906 203.894531 165.363281 C 199.867188 168.222656 194.386719 169.738281 189.644531 168.046875 C 183.914062 166 170.132812 163.730469 171.773438 164.335938 L 181.199219 167.832031 C 183.828125 168.804688 186.453125 169.960938 189.136719 170.792969 C 189.382812 173.363281 189.421875 175.933594 189.261719 178.511719 C 184.335938 180.507812 179.835938 184.113281 175.621094 186.945312 C 174.164062 187.921875 187.238281 181.523438 193.253906 180.117188 C 196.226562 179.425781 199.261719 179.691406 201.925781 181.230469 C 204.394531 182.65625 206.417969 184.765625 208.3125 186.855469 C 210.3125 189.050781 212.136719 191.382812 213.785156 193.855469 C 215.28125 196.101562 217.113281 198.679688 217.949219 201.273438 C 218.476562 202.890625 217.324219 204.152344 216.351562 205.339844 C 215.378906 206.53125 214.3125 207.671875 213.230469 208.773438 C 212.285156 209.734375 211.195312 210.777344 209.746094 210.652344 C 208.246094 210.519531 206.945312 209.34375 205.863281 208.398438 C 203.527344 206.359375 201.519531 204.035156 199.296875 201.882812 C 197.292969 199.949219 195.0625 198.441406 192.226562 198.210938 C 190.46875 198.0625 197.335938 203.746094 199.253906 205.789062 C 199.902344 206.476562 200.566406 207.195312 201.25 207.917969 C 200.449219 208.640625 199.597656 209.296875 198.699219 209.886719 C 198.5 209.933594 198.335938 210.035156 198.199219 210.1875 Z M 206.300781 104.078125 C 206.148438 105.75 206.03125 107.425781 205.949219 109.101562 C 205.566406 108.300781 205.089844 107.554688 204.523438 106.871094 C 205.1875 105.984375 205.78125 105.054688 206.300781 104.078125 Z M 247.152344 120.902344 C 246.085938 122.117188 244.25 122.941406 242.917969 123.828125 L 238.40625 126.816406 C 235.539062 128.722656 232.703125 130.695312 230.417969 133.296875 C 230.054688 133.683594 229.953125 134.125 230.113281 134.628906 C 229.199219 140.460938 228.5 146.320312 228.066406 152.207031 C 227.644531 157.941406 227.828125 163.765625 227.023438 169.476562 C 226.808594 171.019531 226.480469 172.542969 226.042969 174.039062 C 225.722656 175.101562 225.300781 176.132812 225.171875 177.246094 C 225.003906 178.359375 225.203125 179.410156 225.761719 180.390625 C 226.371094 181.371094 227.5 181.542969 227.28125 182.824219 C 227.066406 184.105469 226.296875 185.472656 225.921875 186.777344 C 225.582031 187.949219 225.316406 189.132812 225.121094 190.335938 C 224.695312 193.101562 224.582031 195.875 224.789062 198.664062 C 223.847656 206.714844 222.90625 214.765625 221.964844 222.816406 C 220.335938 222.605469 218.664062 222.269531 217.332031 221.296875 C 216.574219 220.722656 215.996094 220.003906 215.59375 219.144531 C 215.1875 218.28125 215.011719 217.378906 215.054688 216.429688 C 215.089844 215.042969 213.214844 214.601562 212.507812 215.714844 C 211.488281 217.351562 210.566406 219.175781 209.386719 220.695312 C 208.796875 221.460938 208.433594 221.375 207.53125 221.546875 C 206.816406 221.695312 206.128906 221.914062 205.460938 222.203125 C 203.25 223.117188 201.203125 224.746094 198.871094 225.382812 C 199.355469 220.898438 199.84375 216.417969 200.511719 211.953125 C 201.476562 211.308594 202.390625 210.589844 203.246094 209.804688 C 204.339844 210.839844 205.542969 211.726562 206.847656 212.472656 C 209.585938 213.96875 212.242188 213.40625 214.503906 211.363281 C 215.65625 210.277344 216.742188 209.128906 217.757812 207.914062 C 218.824219 206.695312 220.039062 205.332031 220.621094 203.792969 C 221.703125 200.929688 219.402344 197.738281 218.011719 195.375 C 216.296875 192.464844 214.367188 189.707031 212.214844 187.105469 C 209.6875 184.046875 205.929688 180.230469 202.425781 178.261719 C 202.953125 176.777344 203.0625 171.179688 203.148438 169.210938 C 203.726562 168.824219 205.902344 167.28125 206.410156 166.851562 C 208.632812 164.976562 210.242188 162.375 211.941406 160.046875 L 217.679688 152.1875 C 219.179688 150.132812 221.675781 147.871094 220.179688 145.191406 C 219.554688 144.070312 218.578125 143.105469 217.746094 142.132812 C 216.789062 141.003906 215.890625 139.699219 214.765625 138.734375 C 212.367188 136.6875 208.964844 138.53125 206.554688 139.644531 C 206.394531 139.71875 206.25 139.800781 206.082031 139.875 C 206.269531 136.402344 206.992188 132.960938 207.09375 129.484375 L 207.300781 129.617188 C 207.402344 129.675781 207.511719 129.722656 207.628906 129.753906 C 207.746094 129.78125 207.863281 129.796875 207.984375 129.800781 C 208.101562 129.800781 208.21875 129.785156 208.335938 129.753906 C 208.453125 129.722656 208.5625 129.679688 208.667969 129.621094 C 208.769531 129.5625 208.867188 129.492188 208.953125 129.40625 C 209.039062 129.324219 209.113281 129.230469 209.171875 129.128906 C 209.234375 129.023438 209.28125 128.914062 209.316406 128.800781 C 209.347656 128.683594 209.367188 128.566406 209.371094 128.449219 C 209.453125 124.824219 209.148438 121.234375 208.457031 117.675781 C 208.53125 117.496094 208.5625 117.3125 208.558594 117.121094 C 208.429688 108.992188 209.121094 100.933594 210.632812 92.945312 L 213.382812 91.867188 C 214.058594 91.605469 215.878906 90.539062 216.59375 90.667969 C 216.898438 90.71875 217.476562 91.511719 217.691406 91.699219 C 218.070312 92.035156 218.460938 92.351562 218.855469 92.664062 C 219.539062 93.261719 220.296875 93.753906 221.121094 94.132812 C 222.988281 94.875 225.261719 94.261719 227.238281 94.476562 C 229.527344 94.695312 231.679688 95.363281 233.699219 96.46875 C 234.714844 97.054688 234.234375 98.101562 234.125 99.152344 C 234.003906 100.34375 233.878906 101.53125 233.742188 102.71875 C 233.453125 105.289062 233.128906 107.855469 232.78125 110.421875 C 232.09375 115.425781 231.28125 120.410156 230.347656 125.382812 C 230.042969 127.105469 233.570312 122.886719 233.847656 121.261719 C 236.632812 119.4375 239.523438 117.808594 242.46875 116.253906 C 243.140625 115.902344 243.863281 115.363281 244.597656 115.15625 C 245.566406 114.878906 246.257812 115.609375 246.769531 116.386719 C 247.539062 117.5625 248.199219 119.714844 247.152344 120.902344 Z M 247.152344 120.902344 " fill-opacity="1" fill-rule="nonzero"/></g><path fill="#4a3a56" d="M 171.3125 122.183594 C 172.285156 121.480469 173.722656 121.75 174.65625 122.523438 C 175.589844 123.300781 176.074219 124.460938 176.433594 125.605469 C 177.152344 127.902344 177.4375 130.253906 177.28125 132.65625 C 177.277344 132.835938 177.234375 133.007812 177.160156 133.171875 C 176.941406 133.59375 176.320312 133.652344 175.910156 133.414062 C 175.515625 133.125 175.226562 132.757812 175.039062 132.308594 C 173.535156 129.488281 172.332031 126.550781 171.425781 123.488281 C 171.351562 123.226562 171.050781 122.285156 171.300781 122.191406 " fill-opacity="1" fill-rule="nonzero"/></svg>